TITLE ""
FILE "Disc6Track54.mp3" MP3
  TRACK 01 AUDIO
    TITLE "Disc6Track54_01"
    INDEX 01 00:00:00
  TRACK 02 AUDIO
    TITLE "Disc6Track54_02"
    INDEX 01 00:00:73
  TRACK 03 AUDIO
    TITLE "Disc6Track54_03"
    INDEX 01 00:02:50
  TRACK 04 AUDIO
    TITLE "Disc6Track54_04"
    INDEX 01 00:03:60
  TRACK 05 AUDIO
    TITLE "Disc6Track54_05"
    INDEX 01 00:07:44
  TRACK 06 AUDIO
    TITLE "Disc6Track54_06"
    INDEX 01 00:08:00
  TRACK 07 AUDIO
    TITLE "Disc6Track54_07"
    INDEX 01 00:09:05
  TRACK 08 AUDIO
    TITLE "Disc6Track54_08"
    INDEX 01 00:10:15
  TRACK 09 AUDIO
    TITLE "Disc6Track54_09"
    INDEX 01 00:11:18
  TRACK 10 AUDIO
    TITLE "Disc6Track54_10"
    INDEX 01 00:13:33
  TRACK 11 AUDIO
    TITLE "Disc6Track54_11"
    INDEX 01 00:13:62
  TRACK 12 AUDIO
    TITLE "Disc6Track54_12"
    INDEX 01 00:14:73
  TRACK 13 AUDIO
    TITLE "Disc6Track54_13"
    INDEX 01 00:16:50
  TRACK 14 AUDIO
    TITLE "Disc6Track54_14"
    INDEX 01 00:17:60
  TRACK 15 AUDIO
    TITLE "Disc6Track54_15"
    INDEX 01 00:22:22
  TRACK 16 AUDIO
    TITLE "Disc6Track54_16"
    INDEX 01 00:22:53
  TRACK 17 AUDIO
    TITLE "Disc6Track54_17"
    INDEX 01 00:23:62
  TRACK 18 AUDIO
    TITLE "Disc6Track54_18"
    INDEX 01 00:28:30
  TRACK 19 AUDIO
    TITLE "Disc6Track54_19"
    INDEX 01 00:29:35
  TRACK 20 AUDIO
    TITLE "Disc6Track54_20"
    INDEX 01 00:31:11
  TRACK 21 AUDIO
    TITLE "Disc6Track54_21"
    INDEX 01 00:31:38
  TRACK 22 AUDIO
    TITLE "Disc6Track54_22"
    INDEX 01 00:32:53
  TRACK 23 AUDIO
    TITLE "Disc6Track54_23"
    INDEX 01 00:37:21
  TRACK 24 AUDIO
    TITLE "Disc6Track54_24"
    INDEX 01 00:38:34
  TRACK 25 AUDIO
    TITLE "Disc6Track54_25"
    INDEX 01 00:42:01
  TRACK 26 AUDIO
    TITLE "Disc6Track54_26"
    INDEX 01 00:42:32
  TRACK 27 AUDIO
    TITLE "Disc6Track54_27"
    INDEX 01 00:43:53
  TRACK 28 AUDIO
    TITLE "Disc6Track54_28"
    INDEX 01 00:44:53
  TRACK 29 AUDIO
    TITLE "Disc6Track54_29"
    INDEX 01 00:45:72
  TRACK 30 AUDIO
    TITLE "Disc6Track54_30"
    INDEX 01 00:49:15
  TRACK 31 AUDIO
    TITLE "Disc6Track54_31"
    INDEX 01 00:49:44
  TRACK 32 AUDIO
    TITLE "Disc6Track54_32"
    INDEX 01 00:50:59
  TRACK 33 AUDIO
    TITLE "Disc6Track54_33"
    INDEX 01 00:51:64
  TRACK 34 AUDIO
    TITLE "Disc6Track54_34"
    INDEX 01 00:53:03
  TRACK 35 AUDIO
    TITLE "Disc6Track54_35"
    INDEX 01 00:56:32
  TRACK 36 AUDIO
    TITLE "Disc6Track54_36"
    INDEX 01 00:56:64
  TRACK 37 AUDIO
    TITLE "Disc6Track54_37"
    INDEX 01 00:58:08
  TRACK 38 AUDIO
    TITLE "Disc6Track54_38"
    INDEX 01 01:00:22
  TRACK 39 AUDIO
    TITLE "Disc6Track54_39"
    INDEX 01 01:01:41
  TRACK 40 AUDIO
    TITLE "Disc6Track54_40"
    INDEX 01 01:04:08
  TRACK 41 AUDIO
    TITLE "Disc6Track54_41"
    INDEX 01 01:04:40
  TRACK 42 AUDIO
    TITLE "Disc6Track54_42"
    INDEX 01 01:05:47
  TRACK 43 AUDIO
    TITLE "Disc6Track54_43"
    INDEX 01 01:07:48
  TRACK 44 AUDIO
    TITLE "Disc6Track54_44"
    INDEX 01 01:08:59
  TRACK 45 AUDIO
    TITLE "Disc6Track54_45"
    INDEX 01 01:09:21
  TRACK 46 AUDIO
    TITLE "Disc6Track54_46"
    INDEX 01 01:10:34
  TRACK 47 AUDIO
    TITLE "Disc6Track54_47"
    INDEX 01 01:13:68
  TRACK 48 AUDIO
    TITLE "Disc6Track54_48"
    INDEX 01 01:15:04
  TRACK 49 AUDIO
    TITLE "Disc6Track54_49"
    INDEX 01 01:18:55
  TRACK 50 AUDIO
    TITLE "Disc6Track54_50"
    INDEX 01 01:19:12
  TRACK 51 AUDIO
    TITLE "Disc6Track54_51"
    INDEX 01 01:20:29
  TRACK 52 AUDIO
    TITLE "Disc6Track54_52"
    INDEX 01 01:22:30
  TRACK 53 AUDIO
    TITLE "Disc6Track54_53"
    INDEX 01 01:23:47
  TRACK 54 AUDIO
    TITLE "Disc6Track54_54"
    INDEX 01 01:26:71
  TRACK 55 AUDIO
    TITLE "Disc6Track54_55"
    INDEX 01 01:27:25
  TRACK 56 AUDIO
    TITLE "Disc6Track54_56"
    INDEX 01 01:28:42
  TRACK 57 AUDIO
    TITLE "Disc6Track54_57"
    INDEX 01 01:29:59
  TRACK 58 AUDIO
    TITLE "Disc6Track54_58"
    INDEX 01 01:31:01
  TRACK 59 AUDIO
    TITLE "Disc6Track54_59"
    INDEX 01 01:31:35
  TRACK 60 AUDIO
    TITLE "Disc6Track54_60"
    INDEX 01 01:32:50
  TRACK 61 AUDIO
    TITLE "Disc6Track54_61"
    INDEX 01 01:34:06
  TRACK 62 AUDIO
    TITLE "Disc6Track54_62"
    INDEX 01 01:35:19
  TRACK 63 AUDIO
    TITLE "Disc6Track54_63"
    INDEX 01 01:37:22
  TRACK 64 AUDIO
    TITLE "Disc6Track54_64"
    INDEX 01 01:37:53
  TRACK 65 AUDIO
    TITLE "Disc6Track54_65"
    INDEX 01 01:38:66
  TRACK 66 AUDIO
    TITLE "Disc6Track54_66"
    INDEX 01 01:40:67
  TRACK 67 AUDIO
    TITLE "Disc6Track54_67"
    INDEX 01 01:42:05
  TRACK 68 AUDIO
    TITLE "Disc6Track54_68"
    INDEX 01 01:46:50
